<?xml version="1.0" encoding="UTF-8" standalone="no" ?>
<!DOCTYPE svg PUBLIC "-//W3C//DTD SVG 1.1//EN" "http://www.w3.org/Graphics/SVG/1.1/DTD/svg11.dtd">
<svg xmlns="http://www.w3.org/2000/svg" xmlns:xlink="http://www.w3.org/1999/xlink" version="1.1" width="1080" height="1080" viewBox="0 0 1080 1080" xml:space="preserve">
<desc>Created with Fabric.js 5.2.4</desc>
<defs>
</defs>
<g transform="matrix(1 0 0 1 540 540)" id="8aa56616-4c83-4e64-8906-23967dc216c2"  >
<rect style="stroke: none; stroke-width: 1; stroke-dasharray: none; stroke-linecap: butt; stroke-dashoffset: 0; stroke-linejoin: miter; stroke-miterlimit: 4; fill: rgb(255,255,255); fill-rule: nonzero; opacity: 1; visibility: hidden;" vector-effect="non-scaling-stroke"  x="-540" y="-540" rx="0" ry="0" width="1080" height="1080" />
</g>
<g transform="matrix(1 0 0 1 540 540)" id="2a12a8d2-effc-4b2e-885e-de09f4898beb"  >
</g>
<g transform="matrix(67.5 0 0 67.5 540 540)"  >
<g style=""   >
		<g transform="matrix(1 0 0 1 2.5 -0.5)"  >
<path style="stroke: none; stroke-width: 1; stroke-dasharray: none; stroke-linecap: butt; stroke-dashoffset: 0; stroke-linejoin: miter; stroke-miterlimit: 4; fill: rgb(0,0,0); fill-rule: nonzero; opacity: 1;" vector-effect="non-scaling-stroke"  transform=" translate(-10.5, -7.5)" d="M 16 9.1 C 16 8.299999999999999 15.7 8 15.4 7.8 C 15.6 7.5 15.700000000000001 7.1 15.700000000000001 6.6 C 15.700000000000001 5.6 14.9 4.8999999999999995 13.600000000000001 4.8999999999999995 L 10.500000000000002 4.8999999999999995 C 10.600000000000001 4.3999999999999995 10.700000000000001 3.5999999999999996 10.700000000000001 3.0999999999999996 C 10.700000000000001 1.9999999999999996 10.4 0.6999999999999997 9.500000000000002 0.09999999999999964 C 9.3 0.1 9 0 8.7 0 C 8.1 0 7.7 0.2 7.6 0.4 C 7.5 0.5 7.5 0.6 7.5 0.7 L 7.6 3 C 7.6 3.2 7.6 3.4 7.5 3.5 L 5.7 6.6 C 5.7 6.6 5.6000000000000005 6.699999999999999 5.6000000000000005 6.699999999999999 L 5.6000000000000005 6.699999999999999 L 5.6000000000000005 6.699999999999999 L 5.3 6.8 C 5.1 7 5 7.2 5 7.4 L 5 13.5 C 5 13.7 5.1 13.9 5.2 14 C 5.3 14.1 6.2 15 7.2 15 L 12.4 15 C 13.3 15 13.8 14.7 14.200000000000001 14.1 C 14.500000000000002 13.6 14.4 13.1 14.3 12.7 C 14.8 12.5 15.200000000000001 12.2 15.4 11.5 C 15.5 11.1 15.4 10.7 15.200000000000001 10.5 C 15.6 10.3 16 9.9 16 9.1 z" stroke-linecap="round" />
</g>
		<g transform="matrix(1 0 0 1 -6 3)"  >
<path style="stroke: none; stroke-width: 1; stroke-dasharray: none; stroke-linecap: butt; stroke-dashoffset: 0; stroke-linejoin: miter; stroke-miterlimit: 4; fill: rgb(0,0,0); fill-rule: nonzero; opacity: 1;" vector-effect="non-scaling-stroke"  transform=" translate(-2, -11)" d="M 3.3 6 L 0.7 6 C 0.3 6 0 6.3 0 6.7 L 0 15.2 C 0 15.7 0.3 16 0.7 16 L 3.2 16 C 3.7 16 4 15.7 4 15.3 L 4 6.7 C 4 6.3 3.7 6 3.3 6 z" stroke-linecap="round" />
</g>
</g>
</g>
</svg>